<?xml version="1.0" standalone="no"?>
<!DOCTYPE svg PUBLIC "-//W3C//DTD SVG 20010904//EN"
 "http://www.w3.org/TR/2001/REC-SVG-20010904/DTD/svg10.dtd">
<svg version="1.0" xmlns="http://www.w3.org/2000/svg"
 width="361.000000pt" height="361.000000pt" viewBox="0 0 361.000000 361.000000"
 preserveAspectRatio="xMidYMid meet">
<metadata>
Created by potrace 1.11, written by Peter Selinger 2001-2013
</metadata>
<g transform="translate(0.000000,361.000000) scale(0.100000,-0.100000)"
fill="#000000" stroke="none">
<path d="M549 2426 c-2 -2 -20 -7 -40 -10 -53 -8 -158 -48 -215 -81 -74 -43
-184 -159 -222 -236 -54 -108 -71 -187 -67 -314 5 -179 56 -298 179 -420 129
-128 305 -192 499 -182 110 6 124 8 201 33 114 37 247 134 312 227 l20 29 -30
61 c-16 34 -37 91 -46 126 -17 63 -17 64 -24 30 -12 -67 -65 -160 -123 -218
-93 -92 -199 -133 -348 -133 -276 -1 -481 220 -462 496 7 104 10 114 47 189
36 73 58 99 128 154 137 109 354 128 522 46 105 -51 206 -176 236 -293 l11
-45 8 35 c11 52 46 151 66 186 17 30 16 32 -9 65 -44 59 -142 145 -201 177
-101 54 -184 74 -317 78 -66 2 -123 2 -125 0z"/>
<path d="M1632 2411 c-282 -71 -469 -295 -478 -577 -11 -305 162 -541 461
-631 83 -25 295 -25 380 0 291 86 463 322 457 625 -5 288 -205 524 -497 587
-89 19 -237 17 -323 -4z m303 -152 c190 -49 326 -213 341 -413 26 -320 -247
-561 -567 -500 -259 49 -418 278 -377 542 10 65 64 183 105 228 119 132 318
189 498 143z"/>
<path d="M2796 2415 c-151 -31 -307 -132 -383 -246 l-24 -36 20 -34 c23 -41
61 -161 62 -198 0 -17 6 -7 19 34 29 91 60 145 115 200 204 202 556 182 727
-43 89 -116 117 -277 74 -424 -59 -204 -256 -342 -471 -331 -222 10 -383 134
-450 345 -9 31 -14 37 -15 21 -3 -29 -2 -26 -24 -98 -10 -33 -27 -77 -38 -97
l-21 -37 34 -42 c134 -171 320 -252 554 -245 123 3 193 19 286 66 204 101 323
284 336 516 18 303 -155 550 -447 639 -76 23 -265 29 -354 10z"/>
</g>
</svg>
