<?xml version="1.0" standalone="no"?>
<!DOCTYPE svg PUBLIC "-//W3C//DTD SVG 20010904//EN"
 "http://www.w3.org/TR/2001/REC-SVG-20010904/DTD/svg10.dtd">
<svg version="1.0" xmlns="http://www.w3.org/2000/svg"
 width="1229.000000pt" height="1229.000000pt" viewBox="0 0 1229.000000 1229.000000"
 preserveAspectRatio="xMidYMid meet">
<metadata>
Created by potrace 1.11, written by Peter Selinger 2001-2013
</metadata>
<g transform="translate(0.000000,1229.000000) scale(0.100000,-0.100000)"
fill="#000000" stroke="none">
<path d="M6579 11216 c-2 -2 -53 -7 -114 -10 -60 -4 -123 -9 -140 -11 -16 -2
-59 -6 -95 -10 -36 -3 -72 -8 -80 -10 -8 -2 -37 -7 -65 -10 -27 -4 -57 -8 -65
-10 -8 -2 -31 -7 -50 -10 -487 -79 -999 -276 -1447 -555 -77 -48 -315 -218
-363 -260 l-35 -31 61 35 c54 31 253 128 344 168 166 73 503 185 643 213 10 2
26 6 35 9 9 3 34 7 56 11 21 3 42 7 46 10 4 3 65 14 136 25 166 27 169 27 234
36 83 10 108 12 200 19 47 4 108 8 135 11 67 5 491 5 585 0 76 -5 220 -15 275
-21 104 -9 182 -18 195 -20 8 -1 40 -6 70 -10 30 -3 69 -9 85 -11 17 -3 46 -7
65 -10 50 -6 148 -23 200 -34 25 -5 59 -12 75 -15 17 -2 86 -16 155 -30 69
-15 134 -28 145 -30 246 -51 954 -259 1135 -333 14 -6 72 -27 130 -47 58 -20
114 -40 125 -45 11 -5 74 -30 140 -56 114 -44 325 -130 390 -159 17 -7 89 -39
160 -70 72 -32 181 -82 244 -111 62 -30 115 -54 117 -54 2 0 102 -49 223 -109
233 -116 382 -194 663 -345 141 -76 208 -96 350 -103 215 -11 413 67 565 223
236 243 226 520 -24 712 -77 60 -269 144 -383 167 -8 2 -35 8 -60 13 -25 6
-70 13 -100 17 -30 3 -62 8 -70 10 -8 2 -35 7 -60 10 -40 5 -128 20 -240 40
-19 3 -53 10 -75 15 -22 5 -53 11 -70 14 -66 12 -327 69 -445 97 -69 17 -190
46 -270 65 -80 20 -388 96 -685 170 -296 74 -553 137 -570 140 -16 3 -66 14
-110 24 -126 30 -388 85 -495 105 -14 3 -36 7 -50 10 -27 5 -113 21 -169 30
-19 3 -37 7 -40 9 -3 2 -30 7 -60 11 -30 4 -63 9 -75 11 -12 2 -38 6 -60 9
-21 3 -50 7 -65 9 -62 11 -91 14 -231 31 -102 13 -180 21 -285 30 -38 3 -95 8
-125 11 -68 6 -706 15 -711 10z"/>
<path d="M5868 10315 c-2 -1 -46 -5 -98 -9 -52 -4 -108 -8 -125 -10 -95 -11
-159 -19 -235 -32 -47 -8 -101 -17 -120 -20 -69 -11 -317 -73 -415 -104 -154
-50 -218 -76 -460 -190 -284 -134 -487 -247 -705 -393 -642 -429 -1110 -996
-1380 -1672 -29 -71 -53 -134 -55 -140 -1 -5 -5 -17 -8 -25 -22 -53 -86 -271
-102 -346 -2 -10 -10 -48 -19 -84 -8 -36 -17 -78 -20 -95 -3 -16 -10 -54 -16
-84 -56 -298 -84 -751 -65 -1091 5 -108 15 -249 20 -295 2 -22 7 -67 10 -100
3 -33 10 -89 15 -125 5 -36 11 -84 14 -106 5 -39 24 -157 45 -274 90 -514 221
-901 438 -1295 42 -75 198 -321 213 -335 3 -3 24 -30 45 -60 121 -166 323
-388 488 -532 40 -35 74 -66 77 -69 4 -5 126 -100 220 -172 17 -13 116 -79
211 -141 31 -20 60 -36 64 -36 5 0 22 -10 39 -23 54 -40 334 -177 495 -242
275 -110 512 -179 836 -244 83 -16 173 -32 200 -36 28 -3 64 -8 80 -10 53 -8
159 -21 250 -30 111 -12 325 -19 545 -19 243 0 536 10 552 20 4 3 8 1 8 -4 0
-5 -73 -23 -162 -40 -190 -36 -236 -44 -368 -57 -36 -4 -76 -8 -89 -10 -161
-26 -860 -25 -991 0 -8 2 -46 6 -85 10 -38 4 -79 9 -90 11 -11 2 -45 6 -75 10
-30 3 -75 10 -100 15 -25 6 -56 12 -70 14 -55 8 -193 39 -335 75 -690 179
-1320 517 -1845 988 -575 517 -941 1125 -1139 1892 -52 199 -94 417 -116 590
-4 30 -9 63 -10 72 -2 9 -6 49 -10 90 -3 40 -8 84 -10 98 -4 25 -15 208 -20
325 -2 33 -4 74 -4 90 -1 24 -12 9 -57 -85 -156 -322 -186 -401 -219 -582 -44
-236 -51 -539 -20 -790 3 -21 7 -57 10 -80 3 -24 8 -54 10 -68 3 -14 7 -41 10
-60 20 -120 86 -363 135 -500 254 -694 739 -1273 1423 -1699 54 -34 101 -61
104 -61 3 0 17 -9 31 -19 79 -56 584 -294 692 -326 14 -4 39 -13 55 -21 25
-11 213 -74 365 -122 l35 -11 -40 5 c-76 9 -170 24 -235 39 -36 8 -81 17 -100
20 -19 3 -55 11 -80 16 -25 6 -53 12 -62 14 -167 35 -486 134 -707 222 -615
242 -1111 584 -1506 1038 -75 86 -203 266 -285 399 -122 200 -255 523 -296
715 -31 149 -45 246 -53 351 -3 33 -249 -463 -347 -698 -106 -255 -205 -567
-229 -727 -14 -87 -15 -102 -16 -170 -4 -208 64 -357 212 -464 62 -46 117 -68
254 -102 150 -37 232 -68 470 -174 54 -24 547 -232 663 -279 317 -131 772
-289 1332 -464 80 -25 402 -109 449 -117 19 -3 37 -8 41 -10 4 -2 22 -7 41
-10 19 -3 66 -12 104 -20 81 -16 100 -20 215 -40 47 -8 101 -17 120 -19 19 -3
87 -12 150 -20 437 -57 1065 -75 1440 -41 25 2 85 7 134 10 49 4 97 8 106 10
10 2 55 6 100 10 45 4 91 8 102 10 11 3 46 7 77 11 31 3 65 8 76 10 10 2 37 6
60 9 22 3 63 10 90 15 28 5 68 12 90 15 22 3 63 10 90 15 28 6 61 13 75 15 14
3 41 8 60 11 19 3 71 14 115 24 45 11 92 21 105 24 43 8 347 85 397 100 27 8
95 29 153 47 106 32 379 129 435 154 17 7 59 25 95 40 115 48 152 65 344 162
105 52 202 103 217 114 15 10 30 19 33 19 14 0 384 234 436 276 8 7 60 46 115
86 101 75 252 197 335 272 83 75 395 390 460 466 463 532 818 1127 1110 1859
63 158 203 570 241 708 40 145 80 298 89 338 5 22 18 78 29 125 11 47 22 96
25 110 2 14 12 59 21 100 14 66 52 270 60 325 2 11 6 35 9 53 3 17 8 44 10 60
11 71 19 118 21 133 2 9 6 40 10 70 3 30 8 65 10 79 2 14 7 54 11 90 3 36 7
72 9 80 1 8 6 49 9 90 4 41 9 93 12 115 14 117 14 347 -1 439 -63 390 -286
695 -677 928 -214 127 -675 371 -808 427 -14 6 -32 15 -40 20 -16 11 -119 58
-262 122 -48 21 -95 42 -105 47 -71 37 -124 59 -121 52 2 -4 32 -39 68 -77
456 -482 790 -1083 959 -1723 33 -126 86 -401 96 -496 3 -32 8 -70 10 -84 4
-23 11 -97 20 -225 6 -74 6 -421 0 -490 -20 -241 -24 -279 -46 -415 -91 -577
-292 -1134 -578 -1605 -23 -39 -47 -79 -54 -90 -47 -79 -243 -354 -293 -411
-11 -12 -37 -44 -59 -70 -125 -151 -347 -372 -500 -499 -33 -28 -62 -52 -65
-55 -28 -28 -247 -183 -355 -252 -442 -282 -1010 -489 -1515 -553 -30 -4 -57
-8 -60 -10 -3 -2 -45 -6 -95 -10 -49 -4 -92 -9 -95 -10 -13 -8 -290 -19 -460
-19 -161 0 -415 11 -460 19 -8 1 -46 6 -85 10 -77 7 -112 12 -195 25 -168 27
-243 41 -249 44 -4 3 -26 7 -51 11 -25 4 -48 9 -52 12 -5 2 -21 7 -36 9 -82
15 -343 94 -502 153 -339 124 -733 341 -989 547 -439 352 -774 786 -980 1274
-18 41 -36 84 -41 95 -30 64 -142 404 -154 468 -2 12 -14 61 -25 108 -21 88
-55 278 -66 365 -4 27 -8 59 -10 72 -2 13 -7 56 -10 95 -4 40 -8 83 -11 96
-16 110 -22 762 -6 746 6 -6 6 -6 16 -80 3 -27 8 -61 10 -75 3 -14 7 -43 11
-65 32 -221 102 -517 176 -740 149 -449 360 -840 637 -1185 72 -89 334 -359
412 -425 465 -392 995 -647 1622 -779 64 -14 134 -27 155 -31 21 -3 48 -7 59
-9 12 -2 45 -7 75 -11 30 -3 65 -8 79 -10 14 -2 57 -7 95 -11 39 -3 81 -8 95
-10 35 -5 429 -5 465 0 17 2 66 7 110 11 44 4 89 9 99 11 11 2 42 6 70 9 28 3
58 8 66 10 8 2 31 7 50 10 220 37 546 138 775 240 661 294 1239 787 1638 1395
205 314 333 589 436 940 17 58 33 114 36 125 17 76 56 267 60 300 3 22 8 51
10 65 2 14 7 43 9 65 3 22 9 69 13 105 4 36 8 187 8 335 0 239 -4 338 -20 465
-3 19 -7 57 -11 84 -3 27 -8 58 -10 70 -5 21 -7 31 -19 101 -3 22 -11 60 -17
85 -5 25 -11 52 -13 60 -44 207 -161 538 -273 769 -96 199 -243 442 -350 576
-4 6 -21 28 -37 50 -17 22 -32 42 -35 45 -3 3 -25 30 -50 60 -45 55 -66 77
-168 184 -209 216 -474 424 -761 595 -395 236 -829 396 -1276 470 -167 28
-192 31 -260 37 -33 2 -76 7 -95 10 -35 6 -536 14 -542 9z m107 -439 c60 -6
157 -20 295 -41 19 -3 82 -17 140 -31 465 -113 911 -340 1275 -648 112 -95
294 -283 372 -386 40 -52 76 -99 81 -105 21 -28 68 -102 78 -125 4 -8 12 -22
19 -30 11 -14 50 -83 122 -220 80 -152 162 -349 221 -530 132 -407 171 -779
127 -1195 -2 -22 -7 -51 -10 -65 -3 -14 -7 -43 -11 -65 -9 -64 -53 -242 -86
-345 -74 -232 -200 -491 -354 -725 -478 -724 -1223 -1243 -2009 -1399 -210
-41 -299 -50 -510 -50 -178 0 -275 7 -413 29 -560 92 -1181 414 -1598 829
-146 145 -313 354 -378 471 -9 17 -28 48 -41 70 -141 226 -277 595 -340 920
-15 79 -18 93 -35 210 -11 71 -21 219 -14 190 31 -114 144 -395 220 -546 254
-506 623 -859 1117 -1068 223 -94 500 -168 777 -206 25 -3 56 -8 70 -10 102
-15 446 -23 505 -11 11 2 52 7 90 10 401 39 846 233 1180 515 39 33 221 215
261 261 227 262 443 650 540 975 74 244 99 422 99 690 -1 179 -7 259 -30 390
-22 122 -25 137 -37 180 -6 22 -13 46 -14 53 -8 43 -83 251 -119 332 -71 158
-199 382 -268 466 -8 10 -44 55 -79 99 -83 106 -252 275 -361 363 -184 147
-420 285 -617 362 -47 18 -94 37 -105 41 -34 15 -183 59 -247 74 -59 13 -116
24 -153 29 -23 4 -52 9 -65 12 -129 27 -568 26 -720 -1 -14 -3 -40 -7 -57 -10
-79 -12 -104 -17 -198 -41 -117 -29 -323 -98 -378 -126 -55 -28 -54 -18 1 19
194 127 553 275 797 328 161 36 273 53 395 61 47 4 86 7 87 8 6 5 314 -2 378
-8z m-920 -660 c17 -4 66 -13 110 -22 226 -44 505 -173 700 -325 56 -44 270
-264 300 -309 16 -25 32 -47 36 -50 3 -3 26 -39 52 -80 105 -171 192 -394 222
-575 3 -16 7 -41 10 -55 15 -81 24 -388 11 -408 -2 -4 -7 -36 -11 -72 -8 -80
-54 -260 -90 -355 -148 -391 -444 -720 -812 -904 -165 -82 -294 -124 -496
-161 -75 -14 -139 -17 -270 -15 -95 2 -188 6 -207 9 -249 45 -363 82 -550 175
-548 275 -905 855 -904 1471 1 497 187 915 560 1260 191 177 483 330 733 385
11 3 31 7 44 10 33 8 137 24 177 28 49 6 349 0 385 -7z"/>
</g>
</svg>
