<?xml version="1.0" encoding="utf-8"?>
<!-- Generator: Adobe Illustrator 21.1.0, SVG Export Plug-In . SVG Version: 6.00 Build 0)  -->
<svg version="1.1" id="Layer_2" xmlns="http://www.w3.org/2000/svg" xmlns:xlink="http://www.w3.org/1999/xlink" x="0px" y="0px"
	 viewBox="0 0 498 51.9" style="enable-background:new 0 0 498 51.9;" xml:space="preserve">
<style type="text/css">
	.st0{fill:#FFFFFF;}
	.st1{opacity:0.5;fill:#FFFFFF;enable-background:new    ;}
	.st2{opacity:0.75;fill:#FFFFFF;enable-background:new    ;}
	.st3{opacity:0.95;fill:#FFFFFF;enable-background:new    ;}
</style>
<g>
	<path class="st0" d="M168.8,25.3v16h-5.1V25.8c0-5.4-2.6-8.1-7.1-8.1c-5,0-8.3,3.2-8.3,9.2v14.3h-5V25.8c0-5.4-2.6-8.1-7.1-8.1
		c-5,0-8.3,3.2-8.3,9.2v14.3h-5V13.5h4.8v4.2c2-2.9,5.4-4.4,9.6-4.4c4.3,0,7.8,1.6,9.7,5.1c2.1-3.2,6-5.1,10.7-5.1
		C164.1,13.3,168.8,17.2,168.8,25.3z"/>
	<path class="st0" d="M172.5,27.3c0-8.2,6.1-14.1,14.5-14.1s14.4,5.9,14.4,14.1s-6.1,14.1-14.4,14.1
		C178.6,41.5,172.5,35.6,172.5,27.3z M196.2,27.3c0-5.9-4-9.8-9.3-9.8s-9.4,3.8-9.4,9.8s4.1,9.8,9.4,9.8
		C192.2,37.1,196.2,33.2,196.2,27.3z"/>
	<path class="st0" d="M220.7,39.6c-1.5,1.3-3.8,1.9-6.1,1.9c-5.6,0-8.8-3.1-8.8-8.7V17.7h-4.7v-4.2h4.7V7.4h5v6.1h7.9v4.2h-7.9v15
		c0,3,1.5,4.7,4.4,4.7c1.4,0,2.9-0.5,4-1.3L220.7,39.6z"/>
	<path class="st0" d="M222.7,4.9c0-1.8,1.4-3.3,3.4-3.3s3.4,1.4,3.4,3.2s-1.4,3.4-3.4,3.4C224.2,8.2,222.7,6.8,222.7,4.9z
		 M223.6,13.5h5v27.7h-5V13.5z"/>
	<path class="st0" d="M232.5,27.3c0-8.2,6.1-14.1,14.5-14.1s14.4,5.9,14.4,14.1s-6.1,14.1-14.4,14.1
		C238.6,41.5,232.5,35.6,232.5,27.3z M256.2,27.3c0-5.9-4-9.8-9.3-9.8s-9.4,3.8-9.4,9.8s4.1,9.8,9.4,9.8
		C252.3,37.1,256.2,33.2,256.2,27.3z"/>
	<path class="st0" d="M291.4,25.3v16h-5V25.8c0-5.4-2.7-8.1-7.4-8.1c-5.3,0-8.8,3.2-8.8,9.2v14.3h-5V13.5h4.8v4.2
		c2-2.9,5.6-4.5,10-4.5C286.7,13.3,291.4,17.2,291.4,25.3z"/>
	<path class="st0" d="M337.2,27.3c0,8.6-5.9,14.1-14,14.1c-4,0-7.3-1.5-9.7-4.5v14.4h-5V13.5h4.8v4.4c2.2-3.1,5.8-4.7,9.9-4.7
		C331.2,13.3,337.2,18.9,337.2,27.3z M332.2,27.3c0-5.9-4.1-9.8-9.4-9.8s-9.3,3.9-9.3,9.8s4.1,9.8,9.3,9.8
		C328.1,37.1,332.2,33.2,332.2,27.3z"/>
	<path class="st0" d="M355.9,13.3v4.9c-0.4-0.1-0.8-0.1-1.1-0.1c-5.4,0-8.8,3.3-8.8,9.4v13.8h-5V13.5h4.8v4.7
		C347.6,14.9,351.1,13.3,355.9,13.3z"/>
	<path class="st0" d="M356.1,27.3c0-8.2,6.1-14.1,14.5-14.1S385,19.1,385,27.3s-6.1,14.1-14.4,14.1
		C362.3,41.5,356.1,35.6,356.1,27.3z M379.9,27.3c0-5.9-4-9.8-9.3-9.8s-9.4,3.8-9.4,9.8s4.1,9.8,9.4,9.8S379.9,33.2,379.9,27.3z"/>
	<path class="st0" d="M404.3,39.6c-1.5,1.3-3.8,1.9-6.1,1.9c-5.6,0-8.8-3.1-8.8-8.7V17.7h-4.7v-4.2h4.7V7.4h5v6.1h7.9v4.2h-7.9v15
		c0,3,1.5,4.7,4.4,4.7c1.4,0,2.9-0.5,4-1.3L404.3,39.6z"/>
	<path class="st0" d="M403.7,27.3c0-8.2,6.1-14.1,14.5-14.1c8.3,0,14.4,5.9,14.4,14.1s-6.1,14.1-14.4,14.1
		C409.8,41.5,403.7,35.6,403.7,27.3z M427.5,27.3c0-5.9-4-9.8-9.3-9.8s-9.4,3.8-9.4,9.8s4.1,9.8,9.4,9.8S427.5,33.2,427.5,27.3z"/>
	<path class="st0" d="M433.8,27.3c0-8.2,6.1-14.1,14.7-14.1c5,0,9.1,2,11.3,5.9l-3.8,2.4c-1.7-2.7-4.5-4-7.5-4
		c-5.4,0-9.5,3.8-9.5,9.8s4.1,9.8,9.5,9.8c3.1,0,5.8-1.2,7.5-4l3.8,2.4c-2.2,3.9-6.3,6-11.3,6C440,41.5,433.8,35.6,433.8,27.3z"/>
	<path class="st0" d="M460.1,27.3c0-8.2,6.1-14.1,14.5-14.1c8.3,0,14.4,5.9,14.4,14.1s-6.1,14.1-14.4,14.1
		C466.2,41.5,460.1,35.6,460.1,27.3z M483.8,27.3c0-5.9-4-9.8-9.3-9.8s-9.4,3.8-9.4,9.8s4.1,9.8,9.4,9.8S483.8,33.2,483.8,27.3z"/>
	<path class="st0" d="M492.8,2.4h5v38.8h-5V2.4z"/>
</g>
<path class="st1" d="M0.4,27.6c0-11.9,8.8-20.4,20.9-20.4S42,15.7,42,27.6S33.2,48,21.3,48C9.2,48,0.4,39.5,0.4,27.6z"/>
<path class="st2" d="M32.2,27.6c0-11.9,8.8-20.4,20.9-20.4s20.7,8.5,20.7,20.4S65,48,53.1,48C41,48,32.2,39.5,32.2,27.6z"/>
<path class="st3" d="M64,27.6c0-11.9,8.8-20.4,20.9-20.4s20.7,8.5,20.7,20.4S96.8,48,84.9,48C72.8,48,64,39.5,64,27.6z"/>
</svg>
