<?xml version="1.0" encoding="utf-8"?>
<!-- Generator: Adobe Illustrator 23.0.0, SVG Export Plug-In . SVG Version: 6.00 Build 0)  -->
<svg version="1.1" id="Ebene_1" xmlns="http://www.w3.org/2000/svg" xmlns:xlink="http://www.w3.org/1999/xlink" x="0px" y="0px"
	 viewBox="0 0 495.2 48.8" style="enable-background:new 0 0 495.2 48.8;" xml:space="preserve">
<style type="text/css">
	.st0{fill:#FFFFFF;}
</style>
<title>logo</title>
<g id="Layer_2">
	<g id="Layer_1-2">
		<path class="st0" d="M171.9,23.2v15.7H167V23.8c0-5.3-2.6-8-7-8c-4.9,0-8.2,3.1-8.2,9v14h-4.9v-15c0-5.3-2.6-8-7-8
			c-4.9,0-8.2,3.1-8.2,9v14h-4.9V11.7h4.7v4.1c2-2.8,5.3-4.3,9.4-4.3s7.6,1.6,9.4,5c2.1-3.1,5.9-5,10.5-5
			C167.4,11.4,171.9,15.2,171.9,23.2z"/>
		<path class="st0" d="M175.6,25.3c0-8.1,6-13.9,14.2-13.9s14.1,5.8,14.1,13.9s-6,13.9-14.1,13.9S175.6,33.4,175.6,25.3z
			 M198.9,25.3c0-5.8-3.9-9.6-9.1-9.6s-9.2,3.8-9.2,9.6s4,9.6,9.2,9.6S198.9,31.1,198.9,25.3z"/>
		<path class="st0" d="M222.9,37.3c-1.7,1.3-3.8,2-6,1.9c-5.5,0-8.6-3-8.6-8.5v-15h-4.6v-4.1h4.6v-6h4.9v6h7.8v4.1h-7.8v14.7
			c0,2.9,1.5,4.6,4.3,4.6c1.4,0,2.7-0.4,3.9-1.3L222.9,37.3z"/>
		<path class="st0" d="M224.9,3.2c0-1.8,1.5-3.2,3.3-3.2c0,0,0,0,0.1,0c1.8,0.1,3.1,1.6,3.1,3.3s-1.6,3.1-3.3,3.1
			C226.3,6.3,224.9,4.9,224.9,3.2L224.9,3.2z M225.8,11.7h4.9v27.2h-4.9V11.7z"/>
		<path class="st0" d="M234.5,25.3c0-8.1,6-13.9,14.2-13.9s14.1,5.8,14.1,13.9s-6,13.9-14.1,13.9S234.5,33.4,234.5,25.3z
			 M257.9,25.3c0-5.8-3.9-9.6-9.1-9.6s-9.2,3.8-9.2,9.6s4,9.6,9.2,9.6S257.9,31.1,257.9,25.3z"/>
		<path class="st0" d="M292.4,23.2v15.7h-4.9V23.8c0-5.3-2.7-8-7.4-8c-5.2,0-8.6,3.1-8.6,9v14h-4.9V11.7h4.7v4.1
			c2-2.8,5.5-4.4,9.8-4.4C287.8,11.4,292.4,15.2,292.4,23.2z"/>
		<path class="st0" d="M337.4,25.3c0,8.4-5.8,13.9-13.8,13.9c-3.7,0.1-7.2-1.5-9.5-4.4v14.1h-4.9V11.7h4.7V16c2.3-3,5.9-4.7,9.7-4.6
			C331.6,11.4,337.4,17,337.4,25.3z M332.4,25.3c0-5.8-4-9.6-9.2-9.6s-9.1,3.8-9.1,9.6s4,9.6,9.1,9.6S332.4,31.1,332.4,25.3
			L332.4,25.3z"/>
		<path class="st0" d="M355.8,11.4v4.8c-0.4,0-0.8-0.1-1.1,0c-5.3,0-8.6,3.2-8.6,9.2V39h-4.9V11.7h4.7v4.6
			C347.6,13,351,11.4,355.8,11.4z"/>
		<path class="st0" d="M356,25.3c0-8.1,6-13.9,14.2-13.9s14.1,5.8,14.1,13.9s-6,13.9-14.1,13.9S356,33.4,356,25.3z M379.3,25.3
			c0-5.8-3.9-9.6-9.1-9.6s-9.2,3.7-9.2,9.6s4,9.6,9.2,9.6S379.3,31.1,379.3,25.3L379.3,25.3z"/>
		<path class="st0" d="M403.4,37.3c-1.7,1.3-3.8,2-6,1.9c-5.5,0-8.6-3-8.6-8.5v-15h-4.6v-4.1h4.6v-6h4.9v6h7.8v4.1h-7.8v14.7
			c0,2.9,1.5,4.6,4.3,4.6c1.4,0,2.7-0.4,3.9-1.3L403.4,37.3z"/>
		<path class="st0" d="M402.8,25.3c0-8.1,6-13.9,14.2-13.9s14.1,5.8,14.1,13.9s-6,13.9-14.1,13.9S402.8,33.4,402.8,25.3z
			 M426.1,25.3c0-5.8-3.9-9.6-9.1-9.6s-9.2,3.8-9.2,9.6s4,9.6,9.2,9.6S426.1,31.1,426.1,25.3z"/>
		<path class="st0" d="M432.3,25.3c0-8.1,6-13.9,14.4-13.9c4.9,0,8.9,2,11.1,5.8l-3.8,2.4c-1.6-2.5-4.4-4-7.4-3.9
			c-5.3,0-9.4,3.8-9.4,9.6s4,9.6,9.4,9.6c3,0.1,5.8-1.4,7.4-3.9l3.8,2.4c-2.2,3.8-6.2,5.9-11.1,5.9
			C438.4,39.2,432.3,33.4,432.3,25.3z"/>
		<path class="st0" d="M458.2,25.3c0-8.1,6-13.9,14.2-13.9s14.1,5.8,14.1,13.9s-6,13.9-14.1,13.9S458.2,33.4,458.2,25.3z
			 M481.5,25.3c0-5.8-3.9-9.6-9.1-9.6s-9.2,3.8-9.2,9.6s4,9.6,9.2,9.6S481.5,31.1,481.5,25.3z"/>
		<path class="st0" d="M490.2,0.8h4.9v38.1h-4.9V0.8z"/>
		<path class="st0" d="M21,40.3c-8.8,0-15.3-6.4-15.3-15.1S12.1,10.1,21,10.1c8,0,14.1,5.4,15.1,13c0.3-3,1.3-5.9,2.8-8.5
			C35.3,8.8,28.8,5.1,21,5.1C8.9,5.1,0,13.7,0,25.2s8.9,20.1,21,20.1c7.9,0,14.4-3.7,17.9-9.5c-1.6-2.6-2.6-5.5-2.9-8.5
			C35.1,34.9,28.9,40.3,21,40.3z"/>
		<path class="st0" d="M94.4,5.1c-7.9,0-14.4,3.7-18,9.5c1.6,2.6,2.5,5.5,2.8,8.5c1-7.6,7.1-13,15.2-13c8.1-0.3,15,6.1,15.2,14.3
			c0,0.3,0,0.5,0,0.8c0.2,8.1-6.3,14.9-14.4,15.1c-0.3,0-0.6,0-0.8,0c-8.1,0-14.2-5.4-15.2-13c-0.3,3-1.2,5.9-2.8,8.5
			c3.6,5.8,10.1,9.5,18,9.5c12,0,20.8-8.5,20.8-20.1S106.4,5.1,94.4,5.1z"/>
		<path class="st0" d="M78.4,23.1c-0.3-3-1.2-5.9-2.8-8.5C72,8.8,65.5,5.1,57.7,5.1s-14.5,3.7-18,9.5c-1.6,2.6-2.6,5.5-2.8,8.5
			c-0.1,0.7-0.1,1.4-0.1,2.1s0,1.4,0.1,2.1c0.3,3,1.3,5.9,2.8,8.5c3.6,5.8,10.1,9.5,18,9.5s14.4-3.7,17.9-9.5
			c1.6-2.6,2.5-5.5,2.8-8.5c0.1-0.7,0.1-1.4,0.1-2.1S78.5,23.8,78.4,23.1z M72.8,27.3c-1,7.6-7.1,13-15.1,13s-14.2-5.4-15.2-13
			c-0.2-1.4-0.2-2.8,0-4.2c1-7.6,7.1-13,15.2-13s14.1,5.4,15.1,13C73,24.5,73,25.9,72.8,27.3L72.8,27.3z"/>
	</g>
</g>
</svg>
